# xmcd
#
# Track frame offsets:
# 150
# 18725
# 36825
# 60525
# 83945
# 98250
#
# Disc length: 1530 seconds
#
#
# Revision: 0
# Processed by: cddbd v1.4PL0 Copyright (c) Steve Scherf et al.
# Submitted via: FreeRIP 2.51 
#
DISCID=3f05f806
DTITLE=The Stickmen - Side One
DYEAR=2002
DGENRE=Pop/Funk
TTITLE0=So Close And Yet So Far
TTITLE1='Til The Sunrise
TTITLE2=Let's Do This Thang
TTITLE3=Solitaire and Solitude
TTITLE4=Do What You Gotta Do
TTITLE5=WGAF
EXTD=
EXTT0=
EXTT1=
EXTT2=
EXTT3=
EXTT4=
EXTT5=
PLAYORDER=
